<svg xmlns="http://www.w3.org/2000/svg"  viewBox="0 0 64 64" width="64px" height="64px"><linearGradient id="cQAoIkZ4LgWiMfOPJMIAga" x1="32" x2="32" y1="6" y2="56" gradientUnits="userSpaceOnUse"><stop offset="0" stop-color="#7DE3C3"/><stop offset="1" stop-color="#0BA360"/></linearGradient><path fill="url(#cQAoIkZ4LgWiMfOPJMIAga)" d="M55.707,29.293l-23-23c-0.391-0.391-1.023-0.391-1.414,0l-23,23C8.105,29.48,8,29.735,8,30v25	c0,0.552,0.447,1,1,1h46c0.553,0,1-0.448,1-1V30C56,29.735,55.895,29.48,55.707,29.293z M18,45v9h-8v-9.586l8-8V45z M18.293,33.293	L10,41.586V30.414l22-22L37.586,14l-6.293,6.293c0,0,0,0.001-0.001,0.001c-0.001,0.001-0.002,0.001-0.002,0.001L18.556,33.118	C18.463,33.165,18.371,33.215,18.293,33.293z M44,54H20v-8h24V54z M44,44H20v-9.497l12.003-12.086L44,34.414V44z M54,54h-8v-9V34	c0-0.265-0.105-0.52-0.293-0.707L33.414,21L39,15.414l15,15V54z"/><linearGradient id="cQAoIkZ4LgWiMfOPJMIAgb" x1="44" x2="44" y1="15.652" y2="62.869" gradientUnits="userSpaceOnUse"><stop offset="0" stop-color="#d9f7ee"/><stop offset="1" stop-color="#2df19b"/></linearGradient><polygon fill="url(#cQAoIkZ4LgWiMfOPJMIAgb)" points="39,18 36,21 48,33 48,52 52,52 52,32 52,31"/><linearGradient id="cQAoIkZ4LgWiMfOPJMIAgc" x1="32" x2="32" y1="45.848" y2="53.488" gradientUnits="userSpaceOnUse"><stop offset="0" stop-color="#d9f7ee"/><stop offset="1" stop-color="#2df19b"/></linearGradient><rect width="20" height="4" x="22" y="48" fill="url(#cQAoIkZ4LgWiMfOPJMIAgc)"/></svg>